<svg width="221" height="223" viewBox="0 0 221 223" fill="none" xmlns="http://www.w3.org/2000/svg">
<g filter="url(#filter0_d)">
<rect width="152.382" height="152.382" rx="4" transform="matrix(0.705464 0.708745 -0.705464 0.708745 110.5 0)" fill="white"/>
<rect y="0.708745" width="151.382" height="151.382" rx="3.5" transform="matrix(0.705464 0.708745 -0.705464 0.708745 111 0.206425)" stroke="#1199D8"/>
</g>
<rect y="0.531559" width="129.013" height="128.243" rx="3.625" transform="matrix(0.705464 0.708745 -0.705464 0.708745 110.375 16.1548)" fill="white" stroke="#1199D8" stroke-width="0.75"/>
<path d="M143.454 129.552C139.985 127.906 135.384 127 130.5 127C125.022 127 119.866 128.157 116.353 130.175C116.102 130.319 116.03 130.616 116.193 130.839C116.356 131.062 116.691 131.125 116.943 130.981C120.284 129.062 125.226 127.961 130.5 127.961C135.209 127.961 139.628 128.827 142.942 130.399C146.15 131.921 147.916 133.91 147.916 136C147.916 138.791 144.661 141.432 139.421 142.893C139.135 142.972 138.976 143.242 139.066 143.495C139.139 143.7 139.353 143.832 139.583 143.832C139.637 143.832 139.692 143.825 139.746 143.81C142.473 143.049 144.767 141.957 146.378 140.65C148.093 139.259 149 137.651 149 136C149 133.539 147.03 131.249 143.454 129.552Z" fill="black"/>
<path d="M142.43 131.244C142.161 131.116 141.879 130.991 141.591 130.872C141.183 130.703 140.755 130.542 140.317 130.394C137.468 129.429 134.074 128.919 130.5 128.919C129.958 128.919 129.408 128.932 128.867 128.956C128.314 128.98 127.769 129.017 127.249 129.065C123.949 129.363 120.947 130.117 118.57 131.244C115.772 132.571 114.168 134.305 114.168 136C114.168 137.695 115.772 139.428 118.57 140.756C118.756 140.844 118.949 140.931 119.143 141.015C119.56 141.196 120.002 141.368 120.455 141.527C123.348 142.543 126.822 143.08 130.5 143.08C130.887 143.08 131.27 143.074 131.637 143.062C131.784 143.058 131.931 143.052 132.078 143.046C132.48 143.029 132.882 143.005 133.279 142.975C136.772 142.707 139.936 141.939 142.43 140.755C145.228 139.428 146.832 137.695 146.832 136C146.832 134.305 145.228 132.571 142.43 131.244ZM129.275 129.902C129.683 129.888 130.093 129.88 130.5 129.88C133.602 129.88 136.555 130.278 139.104 131.032C137.398 132.384 134.532 134.149 131.192 134.149C130.141 134.149 129.421 133.906 129.053 133.426C128.533 132.75 128.613 131.505 129.275 129.902ZM119.081 139.908C116.648 138.754 115.252 137.329 115.252 136C115.252 134.671 116.648 133.246 119.081 132.091C121.033 131.166 123.44 130.506 126.103 130.159C124.388 132.218 121.738 135.639 119.151 139.941C119.128 139.93 119.104 139.919 119.081 139.908ZM131.227 142.111C130.988 142.117 130.745 142.119 130.5 142.119C127.266 142.119 124.206 141.69 121.591 140.876C123.182 139.365 126.308 136.872 129.612 136.872C130.481 136.872 131.077 137.09 131.436 137.538C132.086 138.35 132.007 140.007 131.227 142.111ZM141.919 139.908C139.827 140.901 137.224 141.586 134.335 141.909C135.441 140.456 137.07 138.293 138.625 136.15C138.787 135.927 138.714 135.63 138.462 135.486C138.21 135.343 137.875 135.407 137.713 135.631C135.905 138.124 133.994 140.644 132.93 142.036C132.913 142.037 132.895 142.038 132.878 142.039C132.715 142.05 132.551 142.061 132.386 142.069C132.384 142.069 132.382 142.07 132.38 142.07C133.373 139.198 132.913 137.723 132.32 136.983C131.751 136.272 130.84 135.911 129.612 135.911C127.807 135.911 125.901 136.531 123.944 137.752C122.509 138.649 121.315 139.703 120.503 140.506C120.479 140.497 120.455 140.488 120.431 140.479C120.342 140.446 120.255 140.412 120.168 140.378C120.154 140.372 120.14 140.367 120.127 140.361C123.012 135.569 125.974 131.886 127.592 130.001C127.611 129.999 127.631 129.997 127.65 129.996C127.783 129.985 127.917 129.975 128.053 129.965C128.07 129.964 128.087 129.963 128.105 129.961C127.61 131.304 127.334 132.896 128.157 133.967C128.739 134.725 129.761 135.11 131.193 135.11C135.179 135.11 138.491 132.882 140.25 131.403C140.271 131.411 140.292 131.418 140.313 131.426C140.398 131.457 140.483 131.488 140.567 131.519C140.574 131.522 140.581 131.525 140.589 131.528C140.156 132.178 139.646 132.92 139.067 133.74C138.909 133.965 138.986 134.261 139.24 134.402C139.493 134.543 139.828 134.474 139.986 134.249C140.594 133.388 141.127 132.612 141.577 131.934C141.693 131.986 141.807 132.038 141.919 132.091C144.352 133.246 145.748 134.671 145.748 136C145.748 137.329 144.352 138.754 141.919 139.908Z" fill="black"/>
<path d="M138.019 143.744C137.953 143.485 137.662 143.323 137.371 143.382C135.196 143.818 132.884 144.039 130.5 144.039C125.791 144.039 121.372 143.173 118.058 141.601C114.85 140.079 113.084 138.09 113.084 136C113.084 134.695 113.759 133.444 115.09 132.281C115.303 132.095 115.306 131.791 115.096 131.602C114.885 131.413 114.542 131.41 114.329 131.597C112.805 132.927 112 134.45 112 136C112 138.461 113.97 140.751 117.546 142.448C121.015 144.094 125.616 145 130.5 145C132.965 145 135.357 144.771 137.61 144.319C137.902 144.26 138.085 144.003 138.019 143.744Z" fill="black"/>
<g filter="url(#filter1_d)">
<path d="M89.0477 98.5017L102.453 91.7978V82.5368L91.2491 88.1389C90.0208 88.7489 88.5518 88.2442 87.947 87.0382C87.339 85.8222 87.8317 84.3441 89.0477 83.7361L102.306 77.1067C101.579 71.0106 96.4368 66.25 90.1484 66.25H80.3047C74.0157 66.25 68.8726 71.0109 68.1463 77.1077L81.4054 83.7361C82.6214 84.3441 83.1141 85.8222 82.5061 87.0382C81.9087 88.2363 80.4391 88.7522 79.204 88.1389L68 82.5378V91.7981L81.4054 98.5017C82.6214 99.1097 83.1141 100.588 82.5061 101.804C81.9013 103.01 80.4323 103.514 79.204 102.905L68 97.3019V106.564L81.4054 113.267C82.6214 113.875 83.1141 115.353 82.5061 116.569C81.9013 117.775 80.4323 118.28 79.204 117.67L68 112.067V121.33L81.4054 128.033C82.6214 128.641 83.1141 130.119 82.5061 131.335C81.9013 132.541 80.4323 133.046 79.204 132.436L68 126.834V132.695C68 139.48 73.5202 145 80.3047 145H90.1484C96.9329 145 102.453 139.48 102.453 132.695C102.453 129.405 102.453 130.125 102.453 126.835L91.2491 132.436C90.0141 133.049 88.5444 132.533 87.947 131.335C87.339 130.119 87.8317 128.641 89.0477 128.033L102.453 121.332V112.068L91.2491 117.67C90.0208 118.28 88.5518 117.776 87.947 116.57C87.339 115.354 87.8317 113.876 89.0477 113.268L102.453 106.565V97.3016L91.2491 102.905C90.0208 103.514 88.5518 103.01 87.947 101.804C87.339 100.588 87.8317 99.1097 89.0477 98.5017Z" fill="black"/>
<path d="M144.617 95.7812C143.209 95.7812 142.207 95.7812 140.799 95.7812C141.599 94.7427 142.156 93.5024 142.156 92.0898C142.156 90.0228 141.071 88.2838 139.507 87.168C141.071 86.0522 142.156 84.3131 142.156 82.2461C142.156 79.2846 140.021 76.9287 137.234 76.3421V68.3828C137.234 64.3118 133.923 61 129.852 61C125.781 61 122.469 64.3118 122.469 68.3828V76.3421C119.682 76.9285 117.547 79.2846 117.547 82.2461C117.547 84.3131 118.632 86.0522 120.196 87.168C118.632 88.2838 117.547 90.0228 117.547 92.0898C117.547 93.5024 118.104 94.7427 118.904 95.7812C116.856 95.7812 115.084 95.7812 112.297 95.7812V93.3203C112.297 89.3479 110.355 85.844 107.375 83.5258V127.724C110.328 125.46 112.297 121.916 112.297 117.93V115.469H144.617C148.703 115.469 152 112.171 152 108.086V103.164C152 99.0787 148.703 95.7812 144.617 95.7812Z" fill="black"/>
</g>
<defs>
<filter id="filter0_d" x="0.653" y="1.66064" width="219.694" height="220.679" filterUnits="userSpaceOnUse" color-interpolation-filters="sRGB">
<feFlood flood-opacity="0" result="BackgroundImageFix"/>
<feColorMatrix in="SourceAlpha" type="matrix" values="0 0 0 0 0 0 0 0 0 0 0 0 0 0 0 0 0 0 127 0"/>
<feOffset dy="4"/>
<feGaussianBlur stdDeviation="2"/>
<feColorMatrix type="matrix" values="0 0 0 0 0.0666667 0 0 0 0 0.6 0 0 0 0 0.847059 0 0 0 0.25 0"/>
<feBlend mode="normal" in2="BackgroundImageFix" result="effect1_dropShadow"/>
<feBlend mode="normal" in="SourceGraphic" in2="effect1_dropShadow" result="shape"/>
</filter>
<filter id="filter1_d" x="64" y="61" width="92" height="92" filterUnits="userSpaceOnUse" color-interpolation-filters="sRGB">
<feFlood flood-opacity="0" result="BackgroundImageFix"/>
<feColorMatrix in="SourceAlpha" type="matrix" values="0 0 0 0 0 0 0 0 0 0 0 0 0 0 0 0 0 0 127 0"/>
<feOffset dy="4"/>
<feGaussianBlur stdDeviation="2"/>
<feColorMatrix type="matrix" values="0 0 0 0 0 0 0 0 0 0 0 0 0 0 0 0 0 0 0.25 0"/>
<feBlend mode="normal" in2="BackgroundImageFix" result="effect1_dropShadow"/>
<feBlend mode="normal" in="SourceGraphic" in2="effect1_dropShadow" result="shape"/>
</filter>
</defs>
</svg>
