<svg width="221" height="223" viewBox="0 0 221 223" fill="none" xmlns="http://www.w3.org/2000/svg">
<g filter="url(#filter0_d)">
<rect width="152.382" height="152.382" rx="4" transform="matrix(0.705464 0.708745 -0.705464 0.708745 110.5 0)" fill="white"/>
<rect y="0.708745" width="151.382" height="151.382" rx="3.5" transform="matrix(0.705464 0.708745 -0.705464 0.708745 111 0.206425)" stroke="#1199D8"/>
</g>
<rect y="0.531559" width="129.013" height="128.243" rx="3.625" transform="matrix(0.705464 0.708745 -0.705464 0.708745 110.375 16.1548)" fill="white" stroke="#1199D8" stroke-width="0.75"/>
<g filter="url(#filter1_d)">
<path d="M150.25 92.4999H143.25C142.282 92.4999 141.5 93.2827 141.5 94.25V101.25H124V99.5C124 98.8629 123.869 98.2598 123.66 97.6945C123.774 97.7171 123.888 97.7501 124 97.7501C124.733 97.7501 125.415 97.2869 125.659 96.5538C125.965 95.636 125.47 94.6449 124.554 94.3406L122.25 93.5726V92.0105L123.446 92.4094C123.631 92.4709 123.817 92.4999 124 92.4999C124.733 92.4999 125.415 92.0368 125.659 91.3036C125.965 90.3858 125.47 89.3947 124.554 89.0904L122.25 88.3224V86.7604L123.446 87.1592C123.631 87.2207 123.817 87.2498 124 87.2498C124.733 87.2498 125.415 86.7866 125.659 86.0534C125.965 85.1357 125.47 84.1446 124.554 83.8402L122.25 83.0723V81.5102L123.446 81.9091C123.631 81.9706 123.817 81.9996 124 81.9996C124.733 81.9996 125.415 81.5365 125.659 80.8033C125.965 79.8855 125.47 78.8944 124.554 78.5901L122.25 77.8221V76.2601L123.446 76.6589C123.631 76.7204 123.817 76.7495 124 76.7495C124.733 76.7495 125.415 76.2863 125.659 75.5531C125.965 74.6354 125.47 73.6443 124.554 73.3399L122.25 72.572V70.1345C123.316 69.1728 124 67.7956 124 66.25C124 63.3549 121.645 61 118.75 61C115.855 61 113.5 63.3549 113.5 66.25C113.5 67.7956 114.184 69.1728 115.25 70.1345V70.2393L114.054 69.8405C113.126 69.5363 112.145 70.0301 111.84 70.9463C111.534 71.864 112.03 72.8551 112.946 73.1595L115.25 73.9274V75.4895L114.054 75.0906C113.126 74.7847 112.145 75.2803 111.84 76.1964C111.534 77.1142 112.03 78.1053 112.946 78.4096L115.25 79.1774V80.7395L114.054 80.3406C113.126 80.033 112.145 80.5303 111.84 81.4464C111.534 82.3642 112.03 83.3553 112.946 83.6596L115.25 84.4274V85.9895L114.054 85.5906C113.126 85.2796 112.145 85.7821 111.84 86.6964C111.534 87.6142 112.03 88.6053 112.946 88.9096L115.25 89.6774V91.2395L114.054 90.8406C113.126 90.5364 112.145 91.0303 111.84 91.9464C111.534 92.8642 112.03 93.8553 112.946 94.1596L115.25 94.9274V95.6155C114.184 96.5772 113.5 97.9545 113.5 99.5V101.25H106.5V97.7499C106.5 93.5247 103.489 89.9901 99.4998 89.177V83.75C99.4999 76.9961 94.0039 71.5 87.2499 71.5H80.25C73.4961 71.5 68 76.9961 68 83.75V132.75C68 139.504 73.4961 145 80.25 145H87.2501C94.0039 145 99.4999 139.504 99.4999 132.75V127.323C103.489 126.51 106.5 122.975 106.5 118.75V111.75H141.5V118.75C141.5 119.717 142.283 120.5 143.25 120.5H150.25C151.217 120.5 152 119.717 152 118.75V94.25C152 93.2827 151.217 92.4999 150.25 92.4999ZM78.0112 130.463C77.6677 130.82 77.2098 131 76.7499 131C76.3142 131 75.8766 130.837 75.5365 130.511L72.0366 127.146C71.341 126.476 71.3188 125.369 71.9887 124.672C72.6604 123.978 73.7643 123.954 74.4632 124.624L77.9632 127.989C78.659 128.659 78.6811 129.766 78.0112 130.463ZM78.0112 117.002C77.6677 117.359 77.2098 117.538 76.7499 117.538C76.3142 117.538 75.8766 117.376 75.5365 117.05L72.0366 113.685C71.341 113.015 71.3188 111.907 71.9887 111.21C72.6604 110.514 73.7643 110.492 74.4632 111.162L77.9632 114.527C78.659 115.197 78.6811 116.304 78.0112 117.002ZM78.0112 103.54C77.6677 103.897 77.2098 104.077 76.7499 104.077C76.3142 104.077 75.8766 103.914 75.5365 103.588L72.0366 100.223C71.341 99.5531 71.3188 98.4457 71.9887 97.7485C72.6604 97.0528 73.7643 97.029 74.4632 97.7005L77.9632 101.065C78.659 101.735 78.6811 102.843 78.0112 103.54ZM78.0112 90.0784C77.6677 90.4355 77.2098 90.615 76.7499 90.615C76.3142 90.615 75.8766 90.4526 75.5365 90.1263L72.0366 86.7614C71.341 86.0915 71.3188 84.9841 71.9887 84.2868C72.6604 83.5896 73.7643 83.5674 74.4632 84.2389L77.9632 87.6038C78.659 88.2737 78.6811 89.3811 78.0112 90.0784ZM95.4634 127.146L91.9634 130.511C91.6233 130.838 91.1858 131 90.75 131C90.2903 131 89.8322 130.82 89.4887 130.463C88.8188 129.766 88.841 128.658 89.5366 127.989L93.0365 124.624C93.7355 123.954 94.8447 123.978 95.5111 124.672C96.1811 125.369 96.1588 126.476 95.4634 127.146ZM95.4634 113.684L91.9634 117.049C91.6233 117.376 91.1858 117.538 90.75 117.538C90.2903 117.538 89.8322 117.359 89.4887 117.001C88.8188 116.304 88.841 115.197 89.5366 114.527L93.0365 111.162C93.7355 110.492 94.8447 110.514 95.5111 111.21C96.1811 111.907 96.1588 113.015 95.4634 113.684ZM95.4634 100.223L91.9634 103.588C91.6233 103.914 91.1858 104.076 90.75 104.076C90.2903 104.076 89.8322 103.897 89.4887 103.54C88.8188 102.843 88.841 101.735 89.5366 101.065L93.0365 97.7004C93.7355 97.0287 94.8447 97.0527 95.5111 97.7483C96.1811 98.4456 96.1588 99.553 95.4634 100.223ZM95.4634 86.7612L91.9634 90.1261C91.6233 90.4526 91.1858 90.6149 90.75 90.6149C90.2903 90.6149 89.8322 90.4354 89.4887 90.0782C88.8188 89.381 88.841 88.2735 89.5366 87.6037L93.0365 84.2388C93.7355 83.5671 94.8447 83.5894 95.5111 84.2867C96.1811 84.9839 96.1588 86.0913 95.4634 86.7612Z" fill="black"/>
<path fill-rule="evenodd" clip-rule="evenodd" d="M125.551 144.691C136.293 144.691 145.102 140.509 145.102 135.329C145.102 130.214 136.293 126 125.551 126C114.773 126 106 130.214 106 135.329C106 140.509 114.773 144.691 125.551 144.691Z" fill="black"/>
<path fill-rule="evenodd" clip-rule="evenodd" d="M125.551 143.832C135.727 143.832 144.027 140.015 144.027 135.33C144.027 130.674 135.727 126.859 125.551 126.859C115.34 126.859 107.074 130.676 107.074 135.33C107.074 140.021 115.34 143.832 125.551 143.832Z" fill="white"/>
<path fill-rule="evenodd" clip-rule="evenodd" d="M121.541 137.552C122.552 136.882 123.629 136.562 124.74 133.785C125.583 131.075 124.841 128.713 124.303 126.865C123.46 126.865 123.494 126.832 122.787 126.928L121.272 137.296C121.204 137.552 121.339 137.679 121.541 137.552Z" fill="black"/>
<path fill-rule="evenodd" clip-rule="evenodd" d="M128.598 141.461C127.34 141.617 126.071 141.692 124.802 141.686C123.134 141.74 121.465 141.632 119.822 141.365C119.439 141.076 119.577 140.562 120.135 140.529C121.687 140.653 123.248 140.663 124.802 140.562C125.631 140.55 126.459 140.475 127.275 140.336C128.249 139.437 125.533 138.44 127.553 137.895L129.921 137.992L130.062 138.826C126.893 138.633 131.316 141.042 128.6 141.46L128.598 141.461ZM132.814 129.092C130.202 133.975 127.52 136.866 124.803 138.376C123.445 139.147 122.157 139.532 120.729 139.661C120.346 139.661 119.786 139.661 119.928 138.89L121.284 128.578C114.597 129.413 109.652 132.144 109.652 135.294C109.652 139.052 116.374 142.135 124.802 142.264C125.08 142.264 125.289 142.328 125.533 142.328C134.31 142.328 141.449 139.148 141.449 135.297C141.449 132.594 137.931 130.281 132.812 129.092H132.814Z" fill="black"/>
</g>
<defs>
<filter id="filter0_d" x="0.653015" y="1.66064" width="219.694" height="220.679" filterUnits="userSpaceOnUse" color-interpolation-filters="sRGB">
<feFlood flood-opacity="0" result="BackgroundImageFix"/>
<feColorMatrix in="SourceAlpha" type="matrix" values="0 0 0 0 0 0 0 0 0 0 0 0 0 0 0 0 0 0 127 0"/>
<feOffset dy="4"/>
<feGaussianBlur stdDeviation="2"/>
<feColorMatrix type="matrix" values="0 0 0 0 0.0666667 0 0 0 0 0.6 0 0 0 0 0.847059 0 0 0 0.25 0"/>
<feBlend mode="normal" in2="BackgroundImageFix" result="effect1_dropShadow"/>
<feBlend mode="normal" in="SourceGraphic" in2="effect1_dropShadow" result="shape"/>
</filter>
<filter id="filter1_d" x="64" y="61" width="92" height="91.9998" filterUnits="userSpaceOnUse" color-interpolation-filters="sRGB">
<feFlood flood-opacity="0" result="BackgroundImageFix"/>
<feColorMatrix in="SourceAlpha" type="matrix" values="0 0 0 0 0 0 0 0 0 0 0 0 0 0 0 0 0 0 127 0"/>
<feOffset dy="4"/>
<feGaussianBlur stdDeviation="2"/>
<feColorMatrix type="matrix" values="0 0 0 0 0 0 0 0 0 0 0 0 0 0 0 0 0 0 0.25 0"/>
<feBlend mode="normal" in2="BackgroundImageFix" result="effect1_dropShadow"/>
<feBlend mode="normal" in="SourceGraphic" in2="effect1_dropShadow" result="shape"/>
</filter>
</defs>
</svg>
