<svg width="221" height="223" viewBox="0 0 221 223" fill="none" xmlns="http://www.w3.org/2000/svg">
<g filter="url(#filter0_d)">
<rect width="152.382" height="152.382" rx="4" transform="matrix(0.705464 0.708745 -0.705464 0.708745 110.5 0)" fill="white"/>
<rect y="0.708745" width="151.382" height="151.382" rx="3.5" transform="matrix(0.705464 0.708745 -0.705464 0.708745 111 0.206425)" stroke="#1199D8"/>
</g>
<rect y="0.531559" width="129.013" height="128.243" rx="3.625" transform="matrix(0.705464 0.708745 -0.705464 0.708745 110.375 16.1548)" fill="white" stroke="#1199D8" stroke-width="0.75"/>
<g filter="url(#filter1_d)">
<path d="M160.492 112.805L118.609 70.921C116.901 69.2136 114.63 69.5643 113.707 69.9531L87.7045 95.956L85.0823 98.5782C81.7582 98.1675 74.7653 97.2638 73.3872 96.9346C72.0091 96.6053 70.6448 97.5427 70.1349 98.0526L71.3898 110.67L72.9422 111.785L92.8872 114.249L125.967 147.33C127.034 148.397 129.178 148.21 130.116 147.983L160.927 117.172C161.801 116.298 161.001 113.896 160.492 112.805Z" fill="black"/>
</g>
<rect x="119.815" y="83.0532" width="42.2551" height="35.2286" rx="12.7932" transform="rotate(45 119.815 83.0532)" fill="black"/>
<path d="M110.884 98.9248C117.846 107.479 118.649 117.6 122.327 121.278C126.009 124.96 131.433 125.5 134.446 122.486C137.459 119.473 136.919 114.049 133.238 110.367C129.559 106.689 119.438 105.887 110.884 98.9248ZM134.585 117.242C134.585 117.242 132.999 111.189 126.549 108.387C128.564 109.096 135.213 110.895 134.585 117.242Z" fill="#FFCC00"/>
<g filter="url(#filter2_d)">
<path d="M97.1045 61.2888C102.833 61.2672 109.43 64.4366 111.831 66.8376L114.498 69.5053L109.036 74.9681L108.769 74.7013C106.901 72.8339 105.131 71.937 102.389 70.9437C99.6476 69.9503 94.9878 71.4088 93.2397 73.1569C91.4916 74.905 90.2701 76.2993 89.9849 79.0795C89.4969 83.8359 92.1316 87.7816 93.3028 90.701L86.7475 97.2563C86.6586 97.1674 86.3013 96.6354 85.5839 95.2187C84.687 93.4478 80.063 83.27 81.0566 76.2696C81.7195 71.6 82.5866 68.7646 85.77 65.6872C89.0912 62.4766 92.0548 61.3079 97.1045 61.2888Z" fill="black"/>
</g>
<path d="M70.6522 100.538L71.5448 109.514L63.4617 117.597L58.5275 112.663L70.6522 100.538Z" fill="#FFCC00"/>
<defs>
<filter id="filter0_d" x="0.653" y="1.66064" width="219.694" height="220.679" filterUnits="userSpaceOnUse" color-interpolation-filters="sRGB">
<feFlood flood-opacity="0" result="BackgroundImageFix"/>
<feColorMatrix in="SourceAlpha" type="matrix" values="0 0 0 0 0 0 0 0 0 0 0 0 0 0 0 0 0 0 127 0"/>
<feOffset dy="4"/>
<feGaussianBlur stdDeviation="2"/>
<feColorMatrix type="matrix" values="0 0 0 0 0.0666667 0 0 0 0 0.6 0 0 0 0 0.847059 0 0 0 0.25 0"/>
<feBlend mode="normal" in2="BackgroundImageFix" result="effect1_dropShadow"/>
<feBlend mode="normal" in="SourceGraphic" in2="effect1_dropShadow" result="shape"/>
</filter>
<filter id="filter1_d" x="58.7678" y="60.25" width="109.811" height="109.811" filterUnits="userSpaceOnUse" color-interpolation-filters="sRGB">
<feFlood flood-opacity="0" result="BackgroundImageFix"/>
<feColorMatrix in="SourceAlpha" type="matrix" values="0 0 0 0 0 0 0 0 0 0 0 0 0 0 0 0 0 0 127 0"/>
<feOffset dy="5.68585"/>
<feGaussianBlur stdDeviation="2.84292"/>
<feColorMatrix type="matrix" values="0 0 0 0 0 0 0 0 0 0 0 0 0 0 0 0 0 0 0.25 0"/>
<feBlend mode="normal" in2="BackgroundImageFix" result="effect1_dropShadow"/>
<feBlend mode="normal" in="SourceGraphic" in2="effect1_dropShadow" result="shape"/>
</filter>
<filter id="filter2_d" x="64.7863" y="53.23" width="55.398" height="55.398" filterUnits="userSpaceOnUse" color-interpolation-filters="sRGB">
<feFlood flood-opacity="0" result="BackgroundImageFix"/>
<feColorMatrix in="SourceAlpha" type="matrix" values="0 0 0 0 0 0 0 0 0 0 0 0 0 0 0 0 0 0 127 0"/>
<feOffset dy="5.68585"/>
<feGaussianBlur stdDeviation="2.84292"/>
<feColorMatrix type="matrix" values="0 0 0 0 0 0 0 0 0 0 0 0 0 0 0 0 0 0 0.25 0"/>
<feBlend mode="normal" in2="BackgroundImageFix" result="effect1_dropShadow"/>
<feBlend mode="normal" in="SourceGraphic" in2="effect1_dropShadow" result="shape"/>
</filter>
</defs>
</svg>
